<mxfile host="app.diagrams.net" modified="2020-12-13T12:45:59.961Z" agent="5.0 (Windows NT 10.0; Win64; x64) AppleWebKit/537.36 (KHTML, like Gecko) Chrome/87.0.4280.88 Safari/537.36" etag="vZ66ap8zsODFfWx3wOwd" version="14.0.1" type="github">
  <diagram id="YYyLRt2YlnPGuTwALq7w" name="Page-1">
    <mxGraphModel dx="942" dy="656" grid="1" gridSize="10" guides="1" tooltips="1" connect="1" arrows="1" fold="1" page="1" pageScale="1" pageWidth="827" pageHeight="1169" math="0" shadow="0">
      <root>
        <mxCell id="0" />
        <mxCell id="1" parent="0" />
        <mxCell id="Kk5G-1nXYGUyWvRs9k0_-10" style="edgeStyle=orthogonalEdgeStyle;rounded=0;orthogonalLoop=1;jettySize=auto;html=1;exitX=0.75;exitY=0;exitDx=0;exitDy=0;" parent="1" source="Kk5G-1nXYGUyWvRs9k0_-1" edge="1">
          <mxGeometry relative="1" as="geometry">
            <mxPoint x="449" y="90" as="targetPoint" />
          </mxGeometry>
        </mxCell>
        <mxCell id="Kk5G-1nXYGUyWvRs9k0_-1" value="&lt;font style=&quot;font-size: 24px&quot;&gt;Corpo loop&lt;/font&gt;" style="rounded=1;whiteSpace=wrap;html=1;" parent="1" vertex="1">
          <mxGeometry x="326" y="80" width="164" height="60" as="geometry" />
        </mxCell>
        <mxCell id="Kk5G-1nXYGUyWvRs9k0_-4" value="&lt;font style=&quot;font-size: 24px&quot;&gt;Condição&lt;/font&gt;" style="rhombus;whiteSpace=wrap;html=1;" parent="1" vertex="1">
          <mxGeometry x="310" y="180" width="196" height="140" as="geometry" />
        </mxCell>
        <mxCell id="Kk5G-1nXYGUyWvRs9k0_-5" value="" style="endArrow=classic;html=1;" parent="1" edge="1">
          <mxGeometry width="50" height="50" relative="1" as="geometry">
            <mxPoint x="414" y="30" as="sourcePoint" />
            <mxPoint x="414" y="80" as="targetPoint" />
          </mxGeometry>
        </mxCell>
        <mxCell id="Kk5G-1nXYGUyWvRs9k0_-7" value="" style="endArrow=classic;html=1;exitX=0.5;exitY=1;exitDx=0;exitDy=0;" parent="1" source="Kk5G-1nXYGUyWvRs9k0_-1" edge="1">
          <mxGeometry width="50" height="50" relative="1" as="geometry">
            <mxPoint x="408" y="150" as="sourcePoint" />
            <mxPoint x="407.5" y="180" as="targetPoint" />
          </mxGeometry>
        </mxCell>
        <mxCell id="Kk5G-1nXYGUyWvRs9k0_-8" value="" style="endArrow=classic;html=1;" parent="1" edge="1">
          <mxGeometry width="50" height="50" relative="1" as="geometry">
            <mxPoint x="407.5" y="320" as="sourcePoint" />
            <mxPoint x="407.5" y="370" as="targetPoint" />
          </mxGeometry>
        </mxCell>
        <mxCell id="Kk5G-1nXYGUyWvRs9k0_-16" value="&lt;span style=&quot;font-size: 18px&quot;&gt;Falso&lt;/span&gt;" style="text;html=1;resizable=0;autosize=1;align=center;verticalAlign=middle;points=[];fillColor=none;strokeColor=none;rounded=0;" parent="1" vertex="1">
          <mxGeometry x="420" y="330" width="60" height="20" as="geometry" />
        </mxCell>
        <mxCell id="AXreZ8vZDARcChuUG0CB-3" value="" style="endArrow=none;html=1;edgeStyle=elbowEdgeStyle;elbow=vertical;" edge="1" parent="1">
          <mxGeometry width="50" height="50" relative="1" as="geometry">
            <mxPoint x="280" y="120" as="sourcePoint" />
            <mxPoint x="310" y="250" as="targetPoint" />
            <Array as="points">
              <mxPoint x="290" y="250" />
            </Array>
          </mxGeometry>
        </mxCell>
        <mxCell id="AXreZ8vZDARcChuUG0CB-4" value="" style="endArrow=classic;html=1;entryX=0.016;entryY=0.639;entryDx=0;entryDy=0;entryPerimeter=0;" edge="1" parent="1" target="Kk5G-1nXYGUyWvRs9k0_-1">
          <mxGeometry width="50" height="50" relative="1" as="geometry">
            <mxPoint x="280" y="120" as="sourcePoint" />
            <mxPoint x="330" y="70" as="targetPoint" />
          </mxGeometry>
        </mxCell>
        <mxCell id="AXreZ8vZDARcChuUG0CB-5" value="&lt;span style=&quot;font-size: 18px&quot;&gt;Verdade&lt;/span&gt;" style="text;html=1;resizable=0;autosize=1;align=center;verticalAlign=middle;points=[];fillColor=none;strokeColor=none;rounded=0;" vertex="1" parent="1">
          <mxGeometry x="200" y="180" width="80" height="20" as="geometry" />
        </mxCell>
      </root>
    </mxGraphModel>
  </diagram>
</mxfile>
